<?xml version="1.0" encoding="utf-8"?>
<!-- Generator: Adobe Illustrator 24.2.3, SVG Export Plug-In . SVG Version: 6.00 Build 0)  -->
<svg version="1.1" id="Layer_1" xmlns="http://www.w3.org/2000/svg" xmlns:xlink="http://www.w3.org/1999/xlink" x="0px" y="0px"
	 viewBox="0 0 1200 600" style="enable-background:new 0 0 1200 600;" xml:space="preserve">
<style type="text/css">
	.st0{fill:url(#SVGID_1_);}
	.st1{fill:#1E9CD7;}
	.st2{font-family:'MyriadPro-Regular';}
	.st3{font-size:21.9755px;}
	.st4{font-size:18.4925px;}
</style>
<g>
	<linearGradient id="SVGID_1_" gradientUnits="userSpaceOnUse" x1="574.7761" y1="186.7884" x2="621.6599" y2="405.5793">
		<stop  offset="0.745" style="stop-color:#1E9CD7"/>
		<stop  offset="0.7828" style="stop-color:#1B98D4"/>
		<stop  offset="0.8226" style="stop-color:#118BCC"/>
		<stop  offset="0.8633" style="stop-color:#0176BF"/>
		<stop  offset="0.8652" style="stop-color:#0075BE"/>
		<stop  offset="0.9944" style="stop-color:#005B97"/>
	</linearGradient>
	<rect x="0.5" y="9.5" class="st0" width="1199" height="590"/>
	<path d="M1199,10v589H1V10H1199 M1200,9H0v591h1200V9L1200,9z"/>
</g>
<text transform="matrix(2.0963 0 0 1 903.5264 521.5059)" class="st1 st2 st3">BSTI library</text>
<text transform="matrix(2.0963 0 0 1 670.0703 432.6076)" class="st1 st2 st3">BSTI library</text>
<text transform="matrix(2.0963 0 0 1 36.0703 555.6076)" class="st1 st2 st3">BSTI library</text>
<text transform="matrix(2.0963 0 0 1 974.0704 421.6078)" class="st1 st2 st3">BSTI library</text>
<text transform="matrix(2.4911 0 0 1 325.0703 536.4785)" class="st1 st2 st4">BSTI library</text>
<text transform="matrix(2.0963 0 0 1 628.0704 536.6078)" class="st1 st2 st3">BSTI library</text>
<text transform="matrix(2.0963 0 0 1 693.0701 341.608)" class="st1 st2 st3">BSTI library</text>
<text transform="matrix(2.0963 0 0 1 465.3335 341.8703)" class="st1 st2 st3">BSTI library</text>
<text transform="matrix(2.0963 0 0 1 465.3335 341.8703)" class="st1 st2 st3">BSTI library</text>
<text transform="matrix(2.0963 0 0 1 234.3334 426.871)" class="st1 st2 st3">BSTI library</text>
<text transform="matrix(2.0963 0 0 1 498.3336 388.8709)" class="st1 st2 st3">BSTI library</text>
<text transform="matrix(2.0963 0 0 1 78.3333 486.8706)" class="st1 st2 st3">BSTI library</text>
<text transform="matrix(2.0963 0 0 1 917.3336 309.8709)" class="st1 st2 st3">BSTI library</text>
<text transform="matrix(2.0963 0 0 1 465.3333 473.8706)" class="st1 st2 st3">BSTI library</text>
</svg>
